<svg width="128" height="128" viewBox="0 0 128 128" fill="none" xmlns="http://www.w3.org/2000/svg" role="img" aria-label="Hand-drawn create event calendar icon">
  <defs>
    <filter id="roughLine" x="-15%" y="-15%" width="130%" height="130%" color-interpolation-filters="sRGB">
      <feTurbulence type="fractalNoise" baseFrequency="0.024" numOctaves="2" seed="41" result="noise"/>
      <feDisplacementMap in="SourceGraphic" in2="noise" scale="0.45" xChannelSelector="R" yChannelSelector="G"/>
    </filter>
    <filter id="softWash" x="-15%" y="-15%" width="130%" height="130%" color-interpolation-filters="sRGB">
      <feGaussianBlur in="SourceGraphic" stdDeviation="0.16" result="softened"/>
      <feTurbulence type="fractalNoise" baseFrequency="0.045" numOctaves="2" seed="12" result="grain"/>
      <feDisplacementMap in="softened" in2="grain" scale="0.22" xChannelSelector="R" yChannelSelector="G"/>
    </filter>
    <linearGradient id="paperWash" x1="31" y1="22" x2="101" y2="106" gradientUnits="userSpaceOnUse">
      <stop stop-color="#FFF7E1"/>
      <stop offset=".52" stop-color="#F2DFC1"/>
      <stop offset="1" stop-color="#D8B98B"/>
    </linearGradient>
    <linearGradient id="rimInk" x1="27" y1="18" x2="107" y2="104" gradientUnits="userSpaceOnUse">
      <stop stop-color="#B57B47"/>
      <stop offset="1" stop-color="#745033"/>
    </linearGradient>
    <linearGradient id="leaf" x1="25" y1="75" x2="103" y2="101" gradientUnits="userSpaceOnUse">
      <stop stop-color="#B9C98C"/>
      <stop offset=".62" stop-color="#789252"/>
      <stop offset="1" stop-color="#4C653B"/>
    </linearGradient>
    <radialGradient id="selectedDay" cx="50%" cy="45%" r="62%">
      <stop stop-color="#F6C375"/>
      <stop offset="1" stop-color="#B7653B"/>
    </radialGradient>
  </defs>
  <g filter="url(#softWash)" opacity=".96">
    <path d="M31.7 34.6c1.9-6.5 7.6-9.2 15.5-8.6 8.4.7 23.2.8 33-.4 9.1-1.2 15.2 2.1 16.7 8.8 1.4 6 .4 12.3.5 18.4.1 7.5 1.7 16.3 2.3 25.7.7 9.1-4.4 14.5-13.7 15.4-11.1 1.1-28.6 1.1-40.4 0-9.5-.9-14.6-6.6-13.8-15.5.7-8.1 1.7-16.9 1.5-25.4-.2-6.6-3.3-12.7-1.6-18.4Z" fill="url(#paperWash)" opacity=".8"/>
  </g>
  <g filter="url(#roughLine)" stroke="url(#rimInk)" stroke-linecap="round" stroke-linejoin="round">
    <path d="M31.6 34.3c2-6.8 7.8-9.4 15.9-8.7 8.8.8 22.7.9 32.9-.4 9.3-1.1 15.3 2.4 16.7 9.2 1.3 6.4.3 12.6.4 18.5.1 7.8 1.8 16.5 2.5 25.9.6 9.2-4.3 14.6-13.9 15.4-11.4.9-28.7 1-40.5-.1-9.6-.9-14.8-6.7-13.9-15.7.8-8.3 1.6-16.8 1.4-25.2-.2-6.6-3.3-12.9-1.5-18.9Z" stroke-width="3.2"/>
    <path d="M36.3 44.8c14.6 2.1 37.6 2.2 58.1.1" stroke-width="2.7"/>
    <path d="M46.7 21c-.8 7.7-.6 13.3.5 16.8M81.6 20.9c-.6 7.4-.4 12.9.6 16.6" stroke-width="3.4"/>
  </g>
  <g filter="url(#roughLine)" stroke="#98704D" stroke-linecap="round">
    <path d="M45 56c12.3 1 28.4 1.1 42.7.2" stroke-width="1.4" opacity=".7"/>
    <path d="M44.6 66.4c12.2 1.2 28.1 1.3 42.9.1" stroke-width="1.4" opacity=".7"/>
    <path d="M45.1 77.4c12.4.9 27.8 1 42.2-.1" stroke-width="1.4" opacity=".7"/>
    <path d="M55.9 51.6c-1.2 11.4-1.2 22.6-.1 33.6M68 52c-1 11.2-1 22.3-.1 33.2M80.3 51.6c-1 11.2-.9 22.4.1 33.4" stroke-width="1.4" opacity=".55"/>
  </g>
  <g filter="url(#roughLine)">
    <path d="M58.7 66.8c1.1-3.1 4.3-5.2 7.6-4.7 3.7.6 6.4 3.5 6.6 6.7.2 4-3.3 6.9-7.4 7.2-4 .3-8.2-4.3-6.8-9.2Z" fill="url(#selectedDay)" stroke="#875030" stroke-width="2"/>
    <path d="M62.6 68.6c1.9 1.1 3.6 2.4 5.1 3.8M68.5 66.7c-1.8 2.3-3.8 4.2-6 5.8" stroke="#784827" stroke-width="1.2" stroke-linecap="round" opacity=".58"/>
  </g>
  <g filter="url(#roughLine)" stroke="#536B3D" stroke-linecap="round" stroke-linejoin="round">
    <path d="M22 88c17-8 33.4-10.8 49.3-8.4 11.6 1.7 22.5-1.3 32.7-9" stroke-width="2.3"/>
    <path d="M32.8 84.8c-5-2.6-9.4-2.1-13.2 1.4 4.2 1.5 8.6 1 13.2-1.4Z" fill="url(#leaf)" stroke-width="1.5"/>
    <path d="M45.6 81.8c-4.6-3.6-8.9-4-12.9-1.1 3.9 2.3 8.2 2.7 12.9 1.1Z" fill="#9CAF6D" stroke-width="1.5"/>
    <path d="M59.8 80.6c-4-4.3-8.3-5.1-12.9-2.6 3.8 2.8 8.1 3.6 12.9 2.6Z" fill="#789252" stroke-width="1.5"/>
    <path d="M77 79.2c5.7.6 9.8-1.3 12.4-5.8-4.8-.2-8.9 1.8-12.4 5.8Z" fill="#AABE7B" stroke-width="1.5"/>
    <path d="M100.3 71.6c-1-4.9-4-7.7-9-8.4.3 4.3 3.3 7.1 9 8.4Z" fill="#BBC98B" stroke-width="1.5"/>
  </g>
  <g filter="url(#roughLine)" stroke="#A06D42" stroke-linecap="round" stroke-linejoin="round">
    <path d="M21.5 40c2-.6 3.3-2 3.9-4 .6 2 1.9 3.4 3.9 4-2 .6-3.3 1.9-3.9 3.9-.6-2-1.9-3.3-3.9-3.9Z" fill="#FFE9A7" stroke-width="1.2"/>
    <path d="M96 103c1.8-.5 3-1.7 3.5-3.6.5 1.9 1.7 3 3.4 3.6-1.8.5-3 1.7-3.5 3.4-.5-1.8-1.7-2.9-3.4-3.4Z" fill="#FFE9A7" stroke-width="1.1"/>
  </g>
</svg>
